<svg width="153" height="38" viewBox="0 0 153 38" fill="none" xmlns="http://www.w3.org/2000/svg">
<path d="M23.3945 15.2192V16.4995C23.3945 18.5529 23.1162 20.396 22.5596 22.0288C22.0029 23.6616 21.2174 25.0532 20.2031 26.2036C19.1888 27.3416 17.9766 28.2137 16.5664 28.8198C15.1686 29.4259 13.6162 29.729 11.9092 29.729C10.2145 29.729 8.6621 29.4259 7.252 28.8198C5.8542 28.2137 4.6419 27.3416 3.6152 26.2036C2.5885 25.0532 1.7907 23.6616 1.2217 22.0288C0.665003 20.396 0.386703 18.5529 0.386703 16.4995V15.2192C0.386703 13.1535 0.665003 11.3104 1.2217 9.6899C1.7783 8.0571 2.5638 6.6655 3.5781 5.5151C4.6048 4.3647 5.81711 3.4865 7.21481 2.8804C8.62501 2.2743 10.1774 1.9712 11.8721 1.9712C13.5791 1.9712 15.1315 2.2743 16.5293 2.8804C17.9395 3.4865 19.1517 4.3647 20.166 5.5151C21.1927 6.6655 21.9844 8.0571 22.541 9.6899C23.11 11.3104 23.3945 13.1535 23.3945 15.2192ZM17.7725 16.4995V15.1821C17.7725 13.7472 17.6426 12.4855 17.3828 11.397C17.123 10.3084 16.7396 9.3931 16.2324 8.6509C15.7253 7.9087 15.1068 7.3521 14.377 6.981C13.6471 6.5975 12.8122 6.4058 11.8721 6.4058C10.932 6.4058 10.097 6.5975 9.3672 6.981C8.6497 7.3521 8.0374 7.9087 7.5303 8.6509C7.0355 9.3931 6.6582 10.3084 6.3984 11.397C6.1387 12.4855 6.0088 13.7472 6.0088 15.1821V16.4995C6.0088 17.922 6.1387 19.1838 6.3984 20.2847C6.6582 21.3732 7.04171 22.2948 7.54881 23.0493C8.05601 23.7915 8.6745 24.3543 9.4043 24.7378C10.1341 25.1213 10.9691 25.313 11.9092 25.313C12.8493 25.313 13.6842 25.1213 14.4141 24.7378C15.1439 24.3543 15.7562 23.7915 16.251 23.0493C16.7458 22.2948 17.123 21.3732 17.3828 20.2847C17.6426 19.1838 17.7725 17.922 17.7725 16.4995ZM32.4121 13.6606V29.3579H27.0684V9.2817H32.0967L32.4121 13.6606ZM38.4609 9.1519L38.3682 14.106C38.1084 14.0688 37.793 14.0379 37.4219 14.0132C37.0632 13.9761 36.7354 13.9575 36.4385 13.9575C35.6839 13.9575 35.0283 14.0565 34.4717 14.2544C33.9274 14.4399 33.4697 14.7183 33.0986 15.0894C32.7399 15.4604 32.4678 15.9119 32.2822 16.4438C32.109 16.9757 32.0101 17.5819 31.9854 18.2622L30.9092 17.9282C30.9092 16.6294 31.0391 15.4357 31.2988 14.3472C31.5586 13.2463 31.9359 12.2876 32.4307 11.4712C32.9378 10.6548 33.5563 10.0239 34.2861 9.5786C35.016 9.1333 35.8509 8.9106 36.791 8.9106C37.0879 8.9106 37.391 8.9354 37.7002 8.9849C38.0094 9.022 38.263 9.0776 38.4609 9.1519ZM53.323 9.2817H58.166V28.6899C58.166 30.5207 57.758 32.0731 56.941 33.3472C56.137 34.6336 55.012 35.6047 53.564 36.2603C52.1172 36.9282 50.4349 37.2622 48.5176 37.2622C47.6764 37.2622 46.7858 37.1509 45.8457 36.9282C44.918 36.7056 44.0273 36.3592 43.1738 35.8892C42.3327 35.4191 41.6276 34.8254 41.0586 34.1079L43.415 30.9536C44.0335 31.6711 44.751 32.2277 45.5674 32.6235C46.3838 33.0317 47.2868 33.2358 48.2764 33.2358C49.2412 33.2358 50.0576 33.0565 50.7256 32.6978C51.3936 32.3514 51.9069 31.8381 52.2656 31.1577C52.6243 30.4897 52.8037 29.6795 52.8037 28.7271V13.9204L53.323 9.2817ZM39.8154 19.561V19.1714C39.8154 17.6375 40.001 16.2459 40.3721 14.9966C40.7555 13.7349 41.2936 12.6525 41.9863 11.7495C42.6914 10.8465 43.5449 10.1476 44.5469 9.6528C45.5488 9.158 46.6807 8.9106 47.9424 8.9106C49.2783 8.9106 50.3978 9.158 51.3008 9.6528C52.2038 10.1476 52.946 10.8527 53.527 11.7681C54.109 12.6711 54.56 13.741 54.882 14.978C55.216 16.2026 55.476 17.5448 55.661 19.0044V19.8579C55.476 21.2557 55.197 22.5545 54.826 23.7544C54.455 24.9543 53.966 26.0057 53.36 26.9087C52.7542 27.7993 51.9997 28.492 51.0967 28.9868C50.2061 29.4816 49.1423 29.729 47.9053 29.729C46.6683 29.729 45.5488 29.4754 44.5469 28.9683C43.5573 28.4611 42.71 27.7498 42.0049 26.8345C41.2998 25.9191 40.7555 24.8429 40.3721 23.606C40.001 22.369 39.8154 21.0207 39.8154 19.561ZM45.1592 19.1714V19.561C45.1592 20.3898 45.2396 21.1629 45.4004 21.8804C45.5612 22.5978 45.8086 23.2349 46.1426 23.7915C46.4889 24.3358 46.9157 24.7625 47.4229 25.0718C47.9424 25.3687 48.5547 25.5171 49.2598 25.5171C50.237 25.5171 51.0348 25.313 51.6533 24.9048C52.2718 24.4842 52.7357 23.909 53.045 23.1792C53.354 22.4494 53.534 21.6082 53.583 20.6558V18.2251C53.558 17.4458 53.453 16.7469 53.268 16.1284C53.082 15.4976 52.8223 14.9595 52.4883 14.5142C52.1543 14.0688 51.7214 13.7225 51.1895 13.4751C50.6576 13.2277 50.0267 13.104 49.2969 13.104C48.5918 13.104 47.9795 13.2648 47.46 13.5864C46.9528 13.8957 46.526 14.3224 46.1797 14.8667C45.8457 15.411 45.5921 16.0542 45.4189 16.7964C45.2458 17.5262 45.1592 18.3179 45.1592 19.1714ZM73.158 24.8306V15.8872C73.158 15.244 73.053 14.6935 72.843 14.2358C72.632 13.7658 72.305 13.4009 71.859 13.1411C71.426 12.8813 70.864 12.7515 70.171 12.7515C69.577 12.7515 69.064 12.8566 68.631 13.0669C68.198 13.2648 67.864 13.5555 67.629 13.939C67.394 14.3101 67.276 14.7492 67.276 15.2563H61.933C61.933 14.4028 62.131 13.5926 62.526 12.8257C62.922 12.0588 63.497 11.3846 64.252 10.8032C65.007 10.2095 65.903 9.7456 66.942 9.4116C67.994 9.0776 69.169 8.9106 70.468 8.9106C72.026 8.9106 73.412 9.1704 74.624 9.6899C75.836 10.2095 76.789 10.9888 77.481 12.0278C78.187 13.0669 78.539 14.3657 78.539 15.9243V24.5151C78.539 25.616 78.607 26.519 78.743 27.2241C78.879 27.9168 79.077 28.5229 79.337 29.0425V29.3579H73.938C73.678 28.8136 73.48 28.1333 73.344 27.3169C73.22 26.4881 73.158 25.6593 73.158 24.8306ZM73.863 17.1304L73.9 20.1548H70.913C70.208 20.1548 69.596 20.2352 69.076 20.396C68.557 20.5568 68.13 20.7856 67.796 21.0825C67.462 21.367 67.215 21.701 67.054 22.0845C66.905 22.4679 66.831 22.8885 66.831 23.3462C66.831 23.8039 66.936 24.2183 67.146 24.5894C67.357 24.9481 67.66 25.2326 68.056 25.4429C68.451 25.6408 68.915 25.7397 69.447 25.7397C70.251 25.7397 70.95 25.5789 71.544 25.2573C72.138 24.9357 72.595 24.5399 72.917 24.0698C73.251 23.5998 73.424 23.1545 73.437 22.7339L74.847 24.9976C74.649 25.5047 74.377 26.0304 74.03 26.5747C73.696 27.119 73.27 27.6323 72.75 28.1147C72.23 28.5848 71.606 28.9744 70.876 29.2837C70.146 29.5806 69.28 29.729 68.278 29.729C67.004 29.729 65.848 29.4754 64.809 28.9683C63.782 28.4487 62.965 27.7375 62.359 26.8345C61.766 25.9191 61.469 24.88 61.469 23.7173C61.469 22.6659 61.667 21.7319 62.062 20.9155C62.458 20.0991 63.04 19.4126 63.807 18.856C64.586 18.2869 65.557 17.8602 66.72 17.5757C67.882 17.2788 69.231 17.1304 70.765 17.1304H73.863ZM87.891 13.5679V29.3579H82.547V9.2817H87.557L87.891 13.5679ZM87.111 18.6147H85.664C85.664 17.1304 85.856 15.7944 86.239 14.6069C86.623 13.4071 87.161 12.3866 87.854 11.5454C88.546 10.6919 89.369 10.0425 90.321 9.5972C91.286 9.1395 92.362 8.9106 93.55 8.9106C94.49 8.9106 95.35 9.0467 96.129 9.3188C96.908 9.591 97.576 10.0239 98.133 10.6177C98.702 11.2114 99.135 11.9969 99.432 12.9741C99.741 13.9513 99.896 15.145 99.896 16.5552V29.3579H94.515V16.5366C94.515 15.646 94.391 14.9533 94.144 14.4585C93.896 13.9637 93.531 13.6174 93.049 13.4194C92.579 13.2091 91.997 13.104 91.305 13.104C90.587 13.104 89.963 13.2463 89.431 13.5308C88.911 13.8153 88.478 14.2111 88.132 14.7183C87.798 15.2131 87.544 15.7944 87.371 16.4624C87.198 17.1304 87.111 17.8478 87.111 18.6147ZM109.6 9.2817V29.3579H104.237V9.2817H109.6ZM103.903 4.0493C103.903 3.27 104.175 2.6268 104.72 2.1196C105.264 1.6125 105.994 1.3589 106.909 1.3589C107.812 1.3589 108.536 1.6125 109.08 2.1196C109.637 2.6268 109.915 3.27 109.915 4.0493C109.915 4.8286 109.637 5.4718 109.08 5.979C108.536 6.4862 107.812 6.7397 106.909 6.7397C105.994 6.7397 105.264 6.4862 104.72 5.979C104.175 5.4718 103.903 4.8286 103.903 4.0493ZM122.31 25.5542C122.965 25.5542 123.547 25.4305 124.054 25.1831C124.561 24.9233 124.957 24.5646 125.241 24.1069C125.538 23.6369 125.693 23.0864 125.705 22.4556H130.733C130.721 23.8657 130.344 25.1213 129.602 26.2222C128.859 27.3107 127.864 28.1704 126.614 28.8013C125.365 29.4198 123.967 29.729 122.421 29.729C120.862 29.729 119.502 29.4692 118.339 28.9497C117.188 28.4302 116.23 27.7127 115.463 26.7974C114.696 25.8696 114.121 24.7935 113.737 23.5688C113.354 22.3319 113.162 21.0083 113.162 19.5981V19.0601C113.162 17.6375 113.354 16.314 113.737 15.0894C114.121 13.8524 114.696 12.7762 115.463 11.8608C116.23 10.9331 117.188 10.2095 118.339 9.6899C119.489 9.1704 120.838 8.9106 122.384 8.9106C124.029 8.9106 125.47 9.2261 126.707 9.8569C127.956 10.4878 128.934 11.3908 129.639 12.5659C130.356 13.7287 130.721 15.1079 130.733 16.7036H125.705C125.693 16.0356 125.55 15.4295 125.278 14.8853C125.019 14.341 124.635 13.908 124.128 13.5864C123.633 13.2524 123.021 13.0854 122.291 13.0854C121.512 13.0854 120.875 13.2524 120.38 13.5864C119.885 13.908 119.502 14.3534 119.229 14.9224C118.957 15.479 118.766 16.116 118.654 16.8335C118.555 17.5386 118.506 18.2808 118.506 19.0601V19.5981C118.506 20.3774 118.555 21.1258 118.654 21.8433C118.753 22.5607 118.939 23.1978 119.211 23.7544C119.495 24.311 119.885 24.7502 120.38 25.0718C120.875 25.3934 121.518 25.5542 122.31 25.5542ZM139.176 0.839401V29.3579H133.832V0.839401H139.176ZM151.83 9.2817L143.109 19.2271L138.434 23.9585L136.485 20.0991L140.196 15.3862L145.41 9.2817H151.83ZM146.282 29.3579L140.345 20.0806L144.037 16.8521L152.442 29.3579H146.282Z" fill="#274C5B"/>
</svg>
